# xmcd
#
# Track frame offsets: 
#        150
#        19490
#        39400
#        70368
#        98803
#        119875
#
# Disc length: 1991 seconds
#
# Revision: 0
# Processed by: cddbd v1.5.2PL0 Copyright (c) Steve Scherf et al.
# Submitted via: ExactAudioCopyFreeDBPlugin 1.0
#
DISCID=5507c506
DTITLE=Bobby Ross Avila - Merry Go Round [CDM Promo)
DYEAR=1990
DGENRE=R&B
TTITLE0=Merry Go Round (Radio Remix)
TTITLE1=Merry Go Round (Album Version)
TTITLE2=Merry Go Round (12'' Remix)
TTITLE3=Merry Go Round (House Mix)
TTITLE4=Merry Go Round (Instrumental)
TTITLE5=Merry Go Round (Dub Version)
EXTD=
EXTT0=
EXTT1=
EXTT2=
EXTT3=
EXTT4=
EXTT5=
PLAYORDER=
